<svg width="1420" height="1420" viewBox="0 0 1420 1420" fill="none" xmlns="http://www.w3.org/2000/svg">
<path fill-rule="evenodd" clip-rule="evenodd" d="M710 1340C1057.94 1340 1340 1057.94 1340 710C1340 362.061 1057.94 80 710 80C362.061 80 80 362.061 80 710C80 1057.94 362.061 1340 710 1340ZM834.34 813.609C855.14 791.609 883.28 780.609 913.87 780.609C928.82 780.581 943.629 783.506 957.447 789.215C971.264 794.923 983.819 803.304 994.39 813.876C1004.96 824.448 1013.34 837.003 1019.05 850.821C1024.76 864.64 1027.68 879.449 1027.65 894.399C1027.65 956.789 976.26 1008.18 913.86 1008.18C851.46 1008.18 800.07 956.789 800.07 894.399V887.059C769.591 868.608 736.636 854.6 702.2 845.459C677.73 916.419 644.69 1002.06 619 1022.86C595.42 1040.84 566.654 1050.71 537 1051H529.7C451.4 1051 389 987.379 389 910.299C389 878.489 397.56 831.999 434.27 797.739C472.2 763.489 530.92 748.799 608 754.919C628.524 756.098 648.954 758.559 669.17 762.289C671.046 756.664 673.612 748.853 676.41 740.338C682.737 721.077 690.249 698.213 693.64 688.879C654.49 679.099 617.75 665.639 584.75 648.509C563.96 670.509 535.82 681.509 505.23 681.509C442.83 681.509 391.45 630.119 391.45 567.729C391.45 505.339 442.83 453.999 505.23 453.999C567.63 453.999 619 505.339 619 567.729V575.069C649.484 593.523 682.447 607.531 716.89 616.669C741.36 545.709 774.39 460.069 800.08 439.269C837.868 409.501 878.861 410.804 887.984 411.094C888.61 411.114 889.085 411.129 889.4 411.129C967.7 411.129 1030.09 474.749 1030.09 551.789C1030.09 583.599 1021.53 630.089 984.83 664.349C946.9 698.599 888.17 713.279 811.09 707.169C790.567 705.999 770.137 703.548 749.92 699.829C748.167 705.1 745.812 712.272 743.229 720.138C736.795 739.73 728.946 763.632 725.45 773.229C764.6 783.019 801.34 796.479 834.34 813.609ZM807.42 631.349C885.73 636.249 937.11 626.459 961.58 600.769C975 586.079 979.93 566.509 977.52 540.819C973.88 512.679 944.48 438.049 902.88 429.479C880.82 425.809 857.62 441.719 836.82 477.199C818.473 512.679 797.673 562.839 774.42 627.679C781.763 629.315 789.107 629.858 796.45 630.402C800.107 630.673 803.763 630.943 807.42 631.349ZM571.3 828.329C513.79 828.329 474.64 839.339 455.07 860.139C441.61 874.819 436.72 894.399 439.12 920.089C442.75 948.229 472.16 1022.86 513.75 1031.42C535.797 1035.09 557.82 1019.19 579.82 983.709C598.173 948.229 618.973 898.066 642.22 833.219C634.907 831.597 627.593 831.053 620.28 830.509C616.593 830.235 612.907 829.961 609.22 829.549C595.77 828.329 583.53 828.329 571.3 828.329Z" fill="#A5A7B8"/>
</svg>
