<svg height="94" viewBox="0 0 98 94" width="98" xmlns="http://www.w3.org/2000/svg" xmlns:xlink="http://www.w3.org/1999/xlink"><linearGradient id="a" x1="25.500579%" x2="73.120064%" y1="13.681176%" y2="84.309244%"><stop offset="0" stop-color="#ff5274"/><stop offset="1" stop-color="#6446fa"/></linearGradient><path d="m29.5003321 76.3978031c1.9735578-3.8680525 5.9897885-6.5161222 10.6233294-6.5161222 6.5851334 0 11.9234387 5.3485067 11.9234387 11.9462241 0 6.5977173-5.3383053 11.946224-11.9234387 11.946224-4.6335409 0-8.6497716-2.6480696-10.6233294-6.5161222h-11.0556499c-10.17702423 0-18.42713244-8.265874-18.42713244-18.4623462 0-10.1964723 8.25010821-18.4623463 18.42713244-18.4623463h25.9764415l-4.3868122-6.5161222h-21.5896293c-10.17702423 0-18.42713244-8.2658739-18.42713244-18.4623462s8.25010821-18.46234622 18.42713244-18.46234622c5.9010046 0 10.8398383 2.28279593 14.4207134 6.97006662.2335492.3057097 1.1309046 1.6099858 3.2449682 4.7050946l9.686801 14.3893276h33.3486596c4.1905393 0 7.5876427-3.4035952 7.5876427-7.6021426s-3.3971034-7.6021426-7.5876427-7.6021426h-11.0556499c-1.9735578 3.8680526-5.9897886 6.5161222-10.6233295 6.5161222-6.5851333 0-11.9234386-5.3485066-11.9234386-11.946224 0-6.59771734 5.3383053-11.94622402 11.9234386-11.94622402 4.6335409 0 8.6497717 2.64806962 10.6233295 6.5161222h11.0556499c10.1770242 0 18.4271324 8.26587392 18.4271324 18.46234622s-8.2501082 18.4623462-18.4271324 18.4623462h-26.0376417l4.3866108 6.5161222h21.6510309c10.1770242 0 18.4271324 8.265874 18.4271324 18.4623463 0 10.1964722-8.2501082 18.4623462-18.4271324 18.4623462-5.6334016 0-10.8595819-2.5556037-14.5407651-7.1331233l-2.6811219-3.7930842-10.1914599-15.1382813h-33.2877953c-4.1905394 0-7.5876428 3.4035952-7.5876428 7.6021426s3.3971034 7.6021425 7.5876428 7.6021425zm41.3387217-6.2421622 2.4019087 3.4147959c1.4365903 1.779581 3.5792992 2.8273663 5.9048619 2.8273663 4.1905393 0 7.5876427-3.4035951 7.5876427-7.6021425s-3.3971034-7.6021426-7.5876427-7.6021426h-14.340013zm-43.6944371-45.4846581c-1.7049125-2.4959116-2.8445878-4.1523915-2.886699-4.207514-1.4619344-1.9136334-3.1865312-2.7107655-5.8132355-2.7107655-4.1905394 0-7.5876428 3.4035952-7.5876428 7.6021426s3.3971034 7.6021426 7.5876428 7.6021426h14.2782755z" fill="url(#a)"/></svg>