<svg height="75" viewBox="0 0 78 75" width="78" xmlns="http://www.w3.org/2000/svg"><path d="m23.5742168 60.955694c1.5771036-3.0862122 4.7865419-5.1990337 8.4892831-5.1990337 5.262292 0 9.5282225 4.2674256 9.5282225 9.5315617 0 5.2641362-4.2659305 9.5315618-9.5282225 9.5315618-3.7027412 0-6.9121795-2.1128215-8.4892831-5.1990337h-8.8347577c-8.13263309 0-14.72543479-6.5951122-14.72543479-14.7305954s6.5928017-14.7305954 14.72543479-14.7305954h20.7582159l-3.5055762-5.1990337h-17.2526397c-8.13263309 0-14.72543479-6.5951122-14.72543479-14.7305954 0-8.1354831 6.5928017-14.73059535 14.72543479-14.73059535 4.7155931 0 8.662299 1.82137973 11.5238372 5.56122335.1866331.2439174.903725 1.2845631 2.5931092 3.7540648l7.7408874 11.4808465h26.6494806c3.3487313 0 6.0634144-2.7156344 6.0634144-6.0655393 0-3.3499048-2.7146831-6.0655392-6.0634144-6.0655392h-8.8347577c-1.5771036 3.0862121-4.7865418 5.1990336-8.4892831 5.1990336-5.262292 0-9.5282225-4.2674255-9.5282225-9.53156169s4.2659305-9.53156173 9.5282225-9.53156173c3.7027413 0 6.9121795 2.11282151 8.4892831 5.19903367h8.8347577c8.1326331 0 14.7254348 6.59511225 14.7254348 14.73059535 0 8.1354832-6.5928017 14.7305954-14.7254348 14.7305954h-20.807122l3.5054152 5.1990337h17.3017068c8.1326331 0 14.7254348 6.5951122 14.7254348 14.7305954s-6.5928017 14.7305954-14.7254348 14.7305954c-4.5017469 0-8.6780764-2.0390455-11.6197725-5.6913217l-2.14253-3.026397-8.1441689-12.078416h-26.600843c-3.3487313 0-6.06341435 2.7156345-6.06341435 6.0655393s2.71468305 6.0655393 6.06341435 6.0655393zm33.0344752-4.9804486 1.9194061 2.7245712c1.1480037 1.4198785 2.8602788 2.2558774 4.7186754 2.2558774 3.3487313 0 6.0634144-2.7156345 6.0634144-6.0655393s-2.7146831-6.0655393-6.0634144-6.0655393h-11.4593481zm-34.9169674-36.2909507c-1.3624245-1.9914187-2.2731584-3.3130783-2.3068102-3.3570589-1.1682567-1.5268352-2.5464113-2.1628448-4.6454553-2.1628448-3.3487313 0-6.06341435 2.7156344-6.06341435 6.0655392 0 3.3499049 2.71468305 6.0655393 6.06341435 6.0655393h11.4100126z" fill="#1e2347"/></svg>